<svg width="235" height="80" viewBox="0 0 235 80" fill="none" xmlns="http://www.w3.org/2000/svg">
<path d="M205.706 71.184C202.848 71.184 200.501 70.7147 198.666 69.776C196.874 68.8373 195.466 67.6 194.442 66.064C193.589 64.7413 193.098 63.3547 192.97 61.904C192.885 60.4533 193.162 59.1093 193.802 57.872C194.442 56.592 195.402 55.6107 196.682 54.928C198.005 54.2027 199.328 53.9253 200.65 54.096C201.973 54.224 203.189 54.7147 204.298 55.568C205.408 56.3787 206.261 57.4453 206.858 58.768C207.498 60.176 208.138 61.2 208.778 61.84C209.461 62.5227 210.336 62.672 211.402 62.288C212.426 61.9467 212.789 61.008 212.49 59.472C212.234 57.936 211.68 56.1227 210.826 54.032H208.458C206.624 54.032 204.789 53.3707 202.954 52.048C201.12 50.7253 199.584 48.6347 198.346 45.776L193.098 33.616C192.288 31.696 192.202 29.9253 192.842 28.304C193.525 26.6827 194.741 25.5093 196.49 24.784C198.112 24.0587 199.712 24.016 201.29 24.656C202.869 25.296 204.106 26.6613 205.002 28.752L209.866 40.08C210.677 41.9147 211.552 43.2373 212.49 44.048C213.472 44.8587 214.496 44.9867 215.562 44.432C216.501 43.92 217.013 43.216 217.098 42.32C217.184 41.3813 216.736 40.2507 215.754 38.928C215.328 38.3307 214.816 37.6693 214.218 36.944C213.664 36.2187 213.152 35.3867 212.682 34.448C212.256 33.4667 212.042 32.3787 212.042 31.184C212.042 29.1787 212.725 27.536 214.09 26.256C215.456 24.9333 217.248 24.272 219.466 24.272C221.472 24.272 223.072 24.912 224.266 26.192C225.504 27.472 226.122 29.136 226.122 31.184C226.122 32.6347 225.952 34.2347 225.61 35.984C225.269 37.7333 224.885 39.3547 224.458 40.848L219.85 57.68C219.168 60.1973 218.272 62.48 217.162 64.528C216.053 66.576 214.581 68.1973 212.746 69.392C210.912 70.5867 208.565 71.184 205.706 71.184Z" fill="#FF7800"/>
<path d="M176.106 58.832C173.162 58.832 170.431 58.5547 167.914 58C165.439 57.4027 163.455 56.4853 161.962 55.248C160.468 53.968 159.722 52.2827 159.722 50.192C159.722 48.3573 160.276 46.8427 161.386 45.648C162.495 44.4533 163.967 43.856 165.802 43.856C166.954 43.856 168.106 44.048 169.258 44.432C170.452 44.7733 171.711 45.1147 173.034 45.456C174.356 45.7973 175.786 45.968 177.322 45.968C178.687 45.968 179.604 45.904 180.074 45.776C180.543 45.6053 180.778 45.3067 180.778 44.88C180.778 44.368 180.479 44.0267 179.882 43.856C179.327 43.6853 178.367 43.472 177.002 43.216L172.394 42.32C170.474 41.936 168.596 41.4453 166.762 40.848C164.97 40.208 163.476 39.2693 162.282 38.032C161.13 36.7947 160.554 35.1093 160.554 32.976C160.554 30.0747 161.834 27.8133 164.394 26.192C166.996 24.5707 170.751 23.76 175.658 23.76C178.474 23.76 180.991 24.0373 183.21 24.592C185.471 25.1467 187.263 25.9787 188.586 27.088C189.908 28.1547 190.57 29.4987 190.57 31.12C190.612 32.8693 190.143 34.2773 189.162 35.344C188.18 36.4107 186.943 36.944 185.45 36.944C184.383 36.944 183.295 36.816 182.186 36.56C181.119 36.2613 179.946 35.9627 178.666 35.664C177.428 35.3227 175.999 35.1307 174.378 35.088C173.226 35.0027 172.287 35.0667 171.562 35.28C170.836 35.4933 170.474 35.8347 170.474 36.304C170.474 36.816 170.9 37.1787 171.754 37.392C172.607 37.5627 173.887 37.7973 175.594 38.096L180.138 38.928C182.911 39.3973 185.108 39.9947 186.73 40.72C188.394 41.4027 189.588 42.3627 190.314 43.6C191.039 44.8373 191.402 46.544 191.402 48.72C191.402 50.9813 190.74 52.88 189.418 54.416C188.138 55.9093 186.346 57.0187 184.042 57.744C181.738 58.4693 179.092 58.832 176.106 58.832Z" fill="#FF7800"/>
<path d="M127.997 58C126.12 58 124.626 57.4453 123.517 56.336C122.408 55.184 121.853 53.776 121.853 52.112V15.056C121.853 13.264 122.386 11.7493 123.453 10.512C124.562 9.27467 126.12 8.65601 128.125 8.65601C130.088 8.65601 131.56 9.27467 132.541 10.512C133.565 11.7493 134.077 13.2853 134.077 15.12V34.512L134.269 34.576C134.482 32.784 135.037 31.1413 135.933 29.648C136.829 28.112 138.088 26.8747 139.709 25.936C141.33 24.9973 143.314 24.528 145.661 24.528C148.818 24.528 151.357 25.4027 153.277 27.152C155.197 28.9013 156.157 31.2907 156.157 34.32C156.157 36.4107 155.73 38.0747 154.877 39.312C154.066 40.5067 152.957 41.3387 151.549 41.808C150.141 42.2773 148.584 42.4907 146.877 42.448V43.536C150.674 43.536 153.362 44.304 154.941 45.84C156.562 47.3333 157.373 49.232 157.373 51.536C157.373 53.6693 156.733 55.312 155.453 56.464C154.173 57.616 152.637 58.1707 150.845 58.128C148.882 58.0853 147.261 57.5093 145.981 56.4C144.701 55.2907 143.634 53.7973 142.781 51.92L140.029 46.096C139.474 44.944 138.749 44.112 137.853 43.6C137 43.088 135.741 42.896 134.077 43.024V52.112C134.077 53.776 133.522 55.184 132.413 56.336C131.346 57.4453 129.874 58 127.997 58ZM135.421 38.672C135.421 39.2693 135.72 39.7173 136.317 40.016C136.957 40.272 138.258 40.4 140.221 40.4C142.141 40.4 143.421 40.272 144.061 40.016C144.701 39.76 145.021 39.312 145.021 38.672C145.021 38.0747 144.701 37.6267 144.061 37.328C143.421 37.0293 142.162 36.88 140.285 36.88C138.28 36.88 136.957 37.0293 136.317 37.328C135.72 37.6267 135.421 38.0747 135.421 38.672Z" fill="#FF7800"/>
<path d="M102.918 58.128C97.9262 58.128 93.9368 56.656 90.9502 53.712C88.0062 50.7253 86.5342 46.5227 86.5342 41.104C86.5342 37.776 87.2168 34.8533 88.5822 32.336C89.9475 29.8187 91.8462 27.856 94.2782 26.448C96.7528 24.9973 99.6328 24.272 102.918 24.272C106.588 24.272 109.638 24.9973 112.07 26.448C114.502 27.856 116.316 29.8187 117.51 32.336C118.748 34.8533 119.366 37.776 119.366 41.104C119.366 46.5227 118.001 50.7253 115.27 53.712C112.582 56.656 108.465 58.128 102.918 58.128ZM94.1502 40.016C94.1502 41.3387 94.8115 42.2773 96.1342 42.832C97.4568 43.344 99.7182 43.6 102.918 43.6C106.118 43.6 108.38 43.344 109.702 42.832C111.025 42.2773 111.686 41.3387 111.686 40.016C111.686 38.736 111.025 37.84 109.702 37.328C108.38 36.816 106.118 36.56 102.918 36.56C99.7182 36.56 97.4568 36.816 96.1342 37.328C94.8115 37.84 94.1502 38.736 94.1502 40.016Z" fill="#FF7800"/>
<path d="M67.2307 58.128C62.2387 58.128 58.2493 56.656 55.2627 53.712C52.3187 50.7253 50.8467 46.5227 50.8467 41.104C50.8467 37.776 51.5293 34.8533 52.8947 32.336C54.26 29.8187 56.1587 27.856 58.5907 26.448C61.0653 24.9973 63.9453 24.272 67.2307 24.272C70.9 24.272 73.9507 24.9973 76.3827 26.448C78.8147 27.856 80.628 29.8187 81.8227 32.336C83.06 34.8533 83.6787 37.776 83.6787 41.104C83.6787 46.5227 82.3133 50.7253 79.5827 53.712C76.8947 56.656 72.7773 58.128 67.2307 58.128ZM58.4627 40.016C58.4627 41.3387 59.124 42.2773 60.4467 42.832C61.7693 43.344 64.0307 43.6 67.2307 43.6C70.4307 43.6 72.692 43.344 74.0147 42.832C75.3373 42.2773 75.9987 41.3387 75.9987 40.016C75.9987 38.736 75.3373 37.84 74.0147 37.328C72.692 36.816 70.4307 36.56 67.2307 36.56C64.0307 36.56 61.7693 36.816 60.4467 37.328C59.124 37.84 58.4627 38.736 58.4627 40.016Z" fill="#FF7800"/>
<path d="M31.0639 58.128C26.8826 58.128 23.1066 57.2747 19.7359 55.568C16.4079 53.8187 13.7839 51.2374 11.8639 47.824C9.94389 44.4107 8.98389 40.208 8.98389 35.216C8.98389 30.224 9.94389 25.9147 11.8639 22.288C13.8266 18.6614 16.4932 15.888 19.8639 13.968C23.2772 12.0054 27.1599 11.024 31.5119 11.024C36.5466 11.024 40.4079 11.728 43.0959 13.136C45.7839 14.544 47.1279 16.6347 47.1279 19.408C47.1279 21.5414 46.5519 23.312 45.3999 24.72C44.2479 26.0854 42.6692 26.768 40.6639 26.768C38.9572 26.768 37.2932 26.5547 35.6719 26.128C34.0932 25.6587 32.2372 25.424 30.1039 25.424C27.3732 25.424 25.2186 26.2134 23.6399 27.792C22.0612 29.3707 21.2719 31.44 21.2719 34C21.2719 36.5174 22.0612 38.6294 23.6399 40.336C25.2186 42 27.3732 42.832 30.1039 42.832C31.5546 42.832 32.8772 42.7254 34.0719 42.512C35.3092 42.256 36.5039 42 37.6559 41.744C38.8506 41.488 40.1306 41.36 41.4959 41.36C43.7572 41.36 45.4212 42.1067 46.4879 43.6C47.5546 45.0507 48.0879 46.864 48.0879 49.04C48.0879 51.216 47.2986 52.9867 45.7199 54.352C44.1412 55.6747 42.0506 56.6347 39.4479 57.232C36.8879 57.8294 34.0932 58.128 31.0639 58.128Z" fill="#FF7800"/>
<path fill-rule="evenodd" clip-rule="evenodd" d="M185.52 57.1961C185.054 58.8794 184.881 60.6194 184.984 62.3738L184.991 62.4906L185.002 62.6072C185.253 65.4555 186.221 68.0768 187.72 70.401L187.753 70.4516L187.786 70.5016C189.624 73.258 192.091 75.3628 194.955 76.8627L194.989 76.8805L195.023 76.898C198.336 78.5931 202.044 79.184 205.707 79.184C209.649 79.184 213.636 78.3594 217.112 76.096C220.135 74.1277 222.495 71.4809 224.197 68.3383C225.632 65.6884 226.744 62.8226 227.57 59.7813C227.57 59.7789 227.571 59.7764 227.572 59.7739L232.163 43.0022C232.656 41.273 233.087 39.4414 233.462 37.5161C233.881 35.3716 234.123 33.2497 234.123 31.184C234.123 27.4187 232.929 23.6709 230.066 20.6816C227.139 17.5762 223.314 16.272 219.467 16.272C215.663 16.272 211.868 17.4278 208.81 20.2405C207.582 19.0152 206.093 17.9706 204.296 17.2421C200.64 15.7598 196.813 15.9061 193.326 17.4361C189.843 18.9075 187.02 21.5162 185.47 25.1996L185.434 25.2827L185.434 25.2848C185.96 25.4898 186.452 25.7154 186.909 25.9618C187.533 26.2986 188.092 26.674 188.586 27.088C189.909 28.1547 190.57 29.4987 190.57 31.12C190.611 32.812 190.174 34.1847 189.257 35.2381C189.24 35.2575 189.223 35.2769 189.206 35.2962C189.191 35.3122 189.177 35.3281 189.162 35.344C188.262 36.3221 187.147 36.8517 185.817 36.933L187.633 41.1422C188.834 41.7801 189.727 42.5994 190.314 43.6C191.039 44.8374 191.402 46.544 191.402 48.72C191.402 48.7378 191.402 48.7555 191.402 48.7732C191.402 48.7761 191.402 48.779 191.402 48.7819C191.402 48.786 191.402 48.7901 191.402 48.7942C191.4 49.1152 191.384 49.4289 191.355 49.7352C191.184 51.5554 190.538 53.1157 189.418 54.416C189.18 54.6933 188.925 54.9573 188.652 55.208C188.631 55.2272 188.61 55.2463 188.589 55.2654C187.735 56.036 186.712 56.6795 185.52 57.1961ZM193.803 57.872C193.163 59.1094 192.885 60.4534 192.971 61.904C193.099 63.3547 193.589 64.7414 194.443 66.064C195.467 67.6 196.875 68.8374 198.667 69.776C200.501 70.7147 202.848 71.184 205.707 71.184C207.479 71.184 209.055 70.9544 210.433 70.4952C211.278 70.2137 212.049 69.846 212.747 69.392C213.031 69.2065 213.307 69.0108 213.575 68.8048C213.62 68.7697 213.666 68.7344 213.71 68.6988C215.104 67.5943 216.255 66.204 217.163 64.528C218.184 62.642 219.025 60.557 219.685 58.273C219.705 58.2027 219.725 58.1322 219.745 58.0614C219.781 57.9349 219.816 57.8078 219.851 57.68L224.459 40.848C224.579 40.4254 224.697 39.9925 224.811 39.5494C225.099 38.4267 225.366 37.2383 225.611 35.984C225.952 34.2347 226.123 32.6347 226.123 31.184C226.123 29.136 225.504 27.472 224.267 26.192C223.072 24.912 221.472 24.272 219.467 24.272C217.248 24.272 215.456 24.9334 214.091 26.256C213.717 26.6062 213.395 26.9836 213.123 27.3881C212.403 28.462 212.043 29.7273 212.043 31.184C212.043 32.3787 212.256 33.4667 212.683 34.448C213.115 35.3137 213.585 36.0886 214.09 36.7728C214.133 36.8305 214.175 36.8876 214.219 36.944C214.474 37.2541 214.714 37.5525 214.938 37.8392C214.95 37.855 214.963 37.8708 214.975 37.8866C215.261 38.253 215.52 38.6002 215.755 38.928C215.916 39.1452 216.062 39.3572 216.195 39.564C216.219 39.6017 216.243 39.6393 216.266 39.6767C216.318 39.7613 216.368 39.8451 216.416 39.928C216.934 40.8299 217.162 41.6273 217.099 42.32C217.013 43.216 216.501 43.92 215.563 44.432C215.418 44.5071 215.274 44.5697 215.132 44.6198C214.219 44.9395 213.339 44.7489 212.491 44.048C212.007 43.6305 211.541 43.0771 211.091 42.388C211.072 42.3588 211.053 42.3294 211.034 42.2997C210.92 42.1213 210.807 41.934 210.695 41.7379C210.69 41.7281 210.684 41.7184 210.678 41.7086C210.452 41.3106 210.231 40.8766 210.014 40.4066C209.986 40.346 209.958 40.2849 209.93 40.2232C209.909 40.1758 209.888 40.1281 209.867 40.08L205.003 28.752C204.83 28.3485 204.644 27.9721 204.446 27.6226C203.616 26.1614 202.565 25.1725 201.291 24.656C199.712 24.016 198.112 24.0587 196.491 24.784C194.741 25.5093 193.525 26.6827 192.843 28.304C192.203 29.9253 192.288 31.696 193.099 33.616L198.347 45.776C198.396 45.891 198.447 46.0048 198.497 46.1173C199.237 47.7568 200.079 49.1323 201.023 50.244C201.059 50.2862 201.095 50.3281 201.131 50.3695C201.702 51.0238 202.31 51.5833 202.955 52.048C203.892 52.724 204.83 53.2273 205.768 53.5578C205.788 53.5649 205.808 53.572 205.829 53.579C206.705 53.881 207.582 54.032 208.459 54.032H210.827C210.896 54.2029 210.964 54.372 211.03 54.5392C211.306 55.24 211.546 55.9082 211.752 56.5439C211.753 56.5481 211.754 56.5522 211.756 56.5564C211.772 56.6055 211.787 56.6544 211.803 56.7031C211.986 57.2811 212.139 57.8318 212.263 58.3551C212.355 58.7424 212.431 59.1147 212.491 59.472C212.699 60.5428 212.586 61.3232 212.151 61.8134C211.962 62.0264 211.713 62.1846 211.403 62.288C210.497 62.6141 209.73 62.5556 209.101 62.1127C209.064 62.0871 209.029 62.0602 208.993 62.032C208.92 61.9736 208.848 61.9095 208.779 61.84C208.672 61.7333 208.565 61.616 208.459 61.488C208.207 61.1858 207.955 60.8241 207.703 60.4029C207.679 60.3631 207.655 60.3228 207.632 60.2819C207.374 59.8395 207.116 59.3349 206.859 58.768C206.562 58.1108 206.202 57.5168 205.779 56.986C205.595 56.756 205.4 56.5378 205.193 56.3315C204.916 56.0558 204.618 55.8013 204.299 55.568C203.401 54.8776 202.434 54.4246 201.397 54.209C201.152 54.1581 200.903 54.1205 200.651 54.096C199.328 53.9254 198.005 54.2027 196.683 54.928C196.179 55.1968 195.724 55.5119 195.319 55.8733C194.696 56.4298 194.191 57.096 193.803 57.872Z" fill="#0F0F0F"/>
<path fill-rule="evenodd" clip-rule="evenodd" d="M153.657 57.6196C154.445 58.9774 155.476 60.2253 156.755 61.3221L156.806 61.3656L156.858 61.4082C159.535 63.6269 162.733 64.9792 166.037 65.7767L166.114 65.7954L166.192 65.8126C169.348 66.508 172.663 66.832 176.106 66.832C179.723 66.832 183.204 66.3947 186.444 65.3748C188.781 64.6392 191.016 63.5523 192.981 62.0176C192.977 61.9798 192.974 61.9419 192.97 61.904C192.89 60.5403 193.13 59.2709 193.691 58.0958C193.693 58.0918 193.695 58.0878 193.697 58.0838C193.731 58.0128 193.766 57.9422 193.802 57.872C194.442 56.592 195.402 55.6107 196.682 54.928C197.305 54.5862 197.929 54.3439 198.552 54.2011C199.13 52.4403 199.402 50.594 199.402 48.72C199.402 48.4431 199.398 48.1626 199.389 47.8794C199.02 47.2318 198.673 46.5307 198.346 45.776L193.098 33.616C192.734 32.7539 192.516 31.9219 192.445 31.12C192.444 31.1048 192.442 31.0896 192.441 31.0744C192.361 30.107 192.495 29.1835 192.842 28.304C193.525 26.6827 194.741 25.5093 196.49 24.784C196.614 24.7288 196.737 24.6776 196.86 24.6303C196.049 23.2234 194.97 21.9712 193.67 20.9111C191.157 18.8219 188.16 17.5711 185.133 16.8265C182.158 16.0847 178.977 15.76 175.658 15.76C170.071 15.76 164.584 16.6479 160.164 19.4018L160.138 19.4175L160.113 19.4335C157.002 21.404 154.724 24.1194 153.522 27.384C154.998 28.8347 155.854 30.6987 156.089 32.976C156.134 33.4091 156.157 33.8571 156.157 34.32C156.157 36.4107 155.73 38.0747 154.877 39.312C154.657 39.6351 154.416 39.9316 154.154 40.2016C154.318 40.5332 154.498 40.8609 154.692 41.1839C153.892 42.2184 153.266 43.3251 152.799 44.4776C153.657 44.8318 154.371 45.286 154.941 45.84C156.235 47.0323 157.013 48.483 157.274 50.192C157.34 50.6235 157.373 51.0715 157.373 51.536C157.373 53.6693 156.733 55.312 155.453 56.464C154.902 56.9599 154.303 57.3451 153.657 57.6196ZM161.272 36.5444C161.536 37.0968 161.873 37.5926 162.282 38.032C162.431 38.1868 162.585 38.3369 162.744 38.4823C163.621 39.2853 164.64 39.9458 165.802 40.4639C166.112 40.6021 166.432 40.7301 166.762 40.848C167.831 41.1963 168.916 41.5083 170.014 41.784C170.053 41.7938 170.092 41.8035 170.131 41.8131C170.293 41.8534 170.456 41.893 170.619 41.9318C170.691 41.9489 170.763 41.9659 170.836 41.9828C171.352 42.1031 171.871 42.2155 172.394 42.32L177.002 43.216C177.111 43.2365 177.218 43.2567 177.322 43.2767C178.124 43.4304 178.772 43.5679 179.266 43.6891C179.284 43.6936 179.302 43.698 179.32 43.7024C179.323 43.7032 179.326 43.704 179.329 43.7048C179.397 43.7216 179.461 43.7381 179.522 43.7543C179.657 43.7897 179.776 43.8236 179.882 43.856C179.967 43.8804 180.046 43.9083 180.119 43.9396C180.243 43.9928 180.35 44.056 180.439 44.1292C180.541 44.213 180.62 44.3099 180.676 44.4199C180.744 44.5538 180.778 44.7072 180.778 44.88C180.778 45.3067 180.543 45.6053 180.074 45.776C179.886 45.8271 179.628 45.868 179.298 45.8986C179.283 45.9001 179.267 45.9015 179.252 45.9028C179.158 45.9111 179.059 45.9187 178.954 45.9254C178.921 45.9274 178.889 45.9294 178.855 45.9313C178.43 45.9558 177.919 45.968 177.322 45.968C177.041 45.968 176.763 45.9623 176.489 45.9509C176.483 45.9506 176.476 45.9503 176.47 45.9501C175.705 45.9174 174.969 45.8401 174.26 45.7183C174.24 45.7149 174.22 45.7114 174.2 45.7079C173.802 45.638 173.414 45.5541 173.034 45.456C172.955 45.4357 172.876 45.4153 172.798 45.395C172.476 45.3115 172.158 45.228 171.844 45.1445C171.839 45.1432 171.835 45.1419 171.83 45.1406C171.305 45.001 170.791 44.8615 170.288 44.7219C170.173 44.6901 170.059 44.6583 169.945 44.6264C169.714 44.5616 169.484 44.4968 169.258 44.432C168.432 44.1568 167.607 43.9802 166.781 43.9023C166.455 43.8714 166.128 43.856 165.802 43.856C165.795 43.856 165.789 43.856 165.782 43.856C165.75 43.8561 165.719 43.8564 165.687 43.8568C163.906 43.8812 162.472 44.4783 161.386 45.648C161.067 45.9911 160.794 46.3607 160.567 46.7566C160.003 47.7392 159.722 48.8843 159.722 50.192C159.722 52.2827 160.468 53.968 161.962 55.248C163.455 56.4853 165.439 57.4027 167.914 58C170.431 58.5547 173.162 58.832 176.106 58.832C179.092 58.832 181.738 58.4693 184.042 57.744C186.346 57.0187 188.138 55.9093 189.418 54.416C190.74 52.88 191.402 50.9813 191.402 48.72C191.402 46.7463 191.103 45.1587 190.507 43.9573C190.445 43.8341 190.381 43.715 190.314 43.6C189.804 42.7301 189.062 41.9972 188.088 41.4015C187.676 41.1499 187.224 40.9227 186.73 40.72C186.337 40.5443 185.91 40.376 185.45 40.2153C184.351 39.832 183.061 39.4914 181.578 39.1936C181.537 39.1854 181.496 39.1773 181.455 39.1691C181.414 39.161 181.373 39.1529 181.331 39.1448C181.299 39.1385 181.266 39.1321 181.233 39.1258C180.879 39.0575 180.513 38.9916 180.138 38.928L175.594 38.096C175.376 38.0579 175.165 38.0209 174.962 37.9849C174.734 37.9447 174.515 37.9057 174.305 37.8681C174.26 37.8602 174.217 37.8524 174.173 37.8446C173.87 37.7902 173.586 37.7386 173.32 37.6898C173.311 37.6883 173.303 37.6867 173.295 37.6852C172.889 37.6107 172.527 37.5428 172.209 37.4814C172.046 37.4499 171.894 37.4201 171.754 37.392C171.707 37.3803 171.661 37.3681 171.617 37.3554C171.506 37.3239 171.403 37.2896 171.309 37.2525C170.823 37.0617 170.549 36.7969 170.487 36.4579C170.478 36.4082 170.474 36.3569 170.474 36.304C170.474 35.8347 170.836 35.4933 171.562 35.28C171.76 35.2217 171.974 35.1745 172.204 35.1385C172.243 35.1325 172.282 35.1268 172.321 35.1214C172.761 35.0612 173.256 35.0399 173.806 35.0573C173.819 35.0578 173.833 35.0582 173.846 35.0587C174.018 35.0647 174.195 35.0745 174.378 35.088C174.978 35.1038 175.553 35.1401 176.101 35.197C176.109 35.1978 176.116 35.1986 176.124 35.1994C176.953 35.2863 177.721 35.4203 178.429 35.6013C178.433 35.6021 178.436 35.6029 178.439 35.6037C178.453 35.6072 178.466 35.6107 178.48 35.6142C178.542 35.6305 178.604 35.6471 178.666 35.664C179.344 35.8222 179.992 35.9804 180.61 36.1386C180.622 36.1417 180.634 36.1449 180.647 36.148C181.109 36.2665 181.554 36.385 181.982 36.5035C182.032 36.5172 182.082 36.531 182.131 36.5448C182.149 36.5499 182.168 36.5549 182.186 36.56C182.739 36.6876 183.286 36.7835 183.829 36.8475C184.375 36.9118 184.915 36.944 185.45 36.944C186.756 36.944 187.867 36.5358 188.781 35.7194C188.894 35.619 189.003 35.5124 189.11 35.3996C189.127 35.3812 189.145 35.3627 189.162 35.344C189.645 34.8188 190.004 34.2109 190.239 33.5202C190.481 32.8081 190.591 32.008 190.57 31.12C190.57 29.4987 189.908 28.1547 188.586 27.088C187.263 25.9787 185.471 25.1467 183.21 24.592C180.991 24.0373 178.474 23.76 175.658 23.76C170.751 23.76 166.996 24.5707 164.394 26.192C161.834 27.8133 160.554 30.0747 160.554 32.976C160.554 34.3518 160.793 35.5413 161.272 36.5444Z" fill="#0F0F0F"/>
<path fill-rule="evenodd" clip-rule="evenodd" d="M117.807 61.9395L117.754 61.8851C115.806 59.862 114.592 57.4394 114.102 54.8255C114.517 54.4813 114.907 54.1101 115.271 53.712C115.727 53.2127 116.145 52.6793 116.526 52.112C118.42 49.2861 119.367 45.6167 119.367 41.104C119.367 37.776 118.748 34.8533 117.511 32.336C116.629 30.4776 115.409 28.9214 113.853 27.6676V15.056C113.853 11.5464 114.95 8.12273 117.394 5.28849L117.445 5.22956L117.496 5.17164C120.434 1.89528 124.358 0.656006 128.125 0.656006C131.854 0.656006 135.896 1.91559 138.755 5.47349C141.097 8.33444 142.077 11.7279 142.077 15.12V16.7995C143.266 16.6123 144.466 16.528 145.661 16.528C150.36 16.528 154.969 17.8708 158.665 21.2384C160.62 23.0201 162.003 25.1012 162.892 27.3534C161.333 28.8379 160.554 30.7121 160.554 32.976C160.554 33.4457 160.582 33.8937 160.638 34.32C160.836 35.8298 161.384 37.0671 162.282 38.032C162.68 38.444 163.111 38.8228 163.575 39.1686C163.305 40.2096 162.928 41.2453 162.417 42.2503C162.872 42.872 163.275 43.5202 163.625 44.1912C162.762 44.4845 162.016 44.97 161.386 45.648C160.277 46.8427 159.722 48.3573 159.722 50.192C159.722 50.6603 159.76 51.1084 159.834 51.536C160.094 53.0174 160.803 54.2547 161.962 55.248C162.693 55.8538 163.542 56.3829 164.508 56.8353C163.799 58.86 162.613 60.7828 160.805 62.4104C157.943 64.9861 154.404 66.2121 150.667 66.126C147.153 66.0489 143.649 64.9653 140.742 62.4455C140.155 61.9369 139.608 61.3966 139.098 60.8294C138.813 61.1905 138.506 61.5413 138.18 61.8809C138.179 61.8816 138.178 61.8823 138.178 61.883C138.177 61.8837 138.176 61.8844 138.176 61.8851C135.279 64.8945 131.536 66 127.997 66C124.445 66 120.759 64.8915 117.86 61.9929L117.807 61.9395ZM132.413 56.336C133.498 55.2098 134.052 53.8389 134.076 52.2233C134.077 52.1864 134.077 52.1492 134.077 52.112V43.024C134.143 43.0189 134.209 43.0143 134.274 43.0103C134.465 42.9982 134.651 42.9906 134.831 42.9874C134.932 42.9856 135.032 42.9851 135.129 42.9861C135.392 42.9887 135.642 43.0013 135.879 43.024C136.683 43.1008 137.341 43.2928 137.853 43.6C138.224 43.8117 138.565 44.0782 138.877 44.3993C138.943 44.4668 139.007 44.5367 139.07 44.609C139.118 44.6644 139.166 44.7212 139.212 44.7794C139.244 44.8184 139.275 44.8581 139.305 44.8983C139.572 45.2493 139.814 45.6485 140.029 46.096L142.781 51.92C143.634 53.7973 144.701 55.2907 145.981 56.4C147.261 57.5093 148.882 58.0853 150.845 58.128C152.637 58.1707 154.173 57.616 155.453 56.464C156.733 55.312 157.373 53.6693 157.373 51.536C157.373 50.3239 157.149 49.224 156.7 48.2363C156.296 47.3465 155.709 46.5477 154.941 45.84C154.282 45.1992 153.431 44.692 152.386 44.3186C152.068 44.2048 151.732 44.1035 151.378 44.0145C150.307 43.7455 149.072 43.5899 147.673 43.5477C147.413 43.5399 147.148 43.536 146.877 43.536V42.448C146.969 42.4503 147.061 42.4519 147.153 42.4527C147.343 42.4544 147.531 42.4528 147.718 42.448C149.099 42.4124 150.376 42.1991 151.549 41.808C151.938 41.6785 152.304 41.5213 152.647 41.3365C153.547 40.8517 154.29 40.1769 154.877 39.312C155.313 38.6796 155.638 37.9358 155.851 37.0805C156.055 36.2623 156.157 35.3422 156.157 34.32C156.157 31.2907 155.197 28.9013 153.277 27.152C151.357 25.4027 148.818 24.528 145.661 24.528C144.354 24.528 143.159 24.6736 142.077 24.9649C141.217 25.1965 140.427 25.5202 139.709 25.936C138.276 26.7655 137.127 27.8282 136.26 29.1241C136.146 29.2947 136.037 29.4693 135.933 29.648C135.917 29.6752 135.901 29.7024 135.884 29.7297C135.666 30.1009 135.468 30.4812 135.291 30.8707C134.943 31.6358 134.676 32.4363 134.49 33.2721C134.483 33.3042 134.476 33.3363 134.469 33.3685C134.456 33.4306 134.443 33.4928 134.431 33.5553C134.368 33.8693 134.317 34.1882 134.277 34.512C134.274 34.5333 134.272 34.5546 134.269 34.576L134.077 34.512V15.12C134.077 13.2853 133.565 11.7493 132.541 10.512C131.56 9.27467 130.088 8.65601 128.125 8.65601C126.12 8.65601 124.562 9.27467 123.453 10.512C122.386 11.7493 121.853 13.264 121.853 15.056V52.112C121.853 53.776 122.408 55.184 123.517 56.336C124.626 57.4453 126.12 58 127.997 58C129.874 58 131.346 57.4453 132.413 56.336ZM137.228 37.0714C136.842 37.1391 136.539 37.2246 136.317 37.328C135.72 37.6267 135.421 38.0747 135.421 38.672C135.421 39.2693 135.72 39.7173 136.317 40.016C136.537 40.1041 136.836 40.177 137.213 40.2348C137.363 40.2579 137.527 40.2786 137.703 40.2969C137.737 40.3004 137.771 40.3039 137.807 40.3073C138.125 40.3377 138.481 40.3607 138.877 40.3762C139.13 40.386 139.399 40.3929 139.684 40.3966C139.714 40.397 139.744 40.3974 139.774 40.3977C139.919 40.3992 140.068 40.4 140.221 40.4C140.242 40.4 140.264 40.4 140.285 40.4C140.778 40.3992 141.228 40.3899 141.636 40.372C142.02 40.3552 142.367 40.3307 142.675 40.2985C142.876 40.2776 143.06 40.2534 143.229 40.2259C143.575 40.1696 143.852 40.0996 144.061 40.016C144.518 39.8332 144.812 39.5526 144.942 39.1741C144.995 39.0224 145.021 38.8551 145.021 38.672C145.021 38.0747 144.701 37.6267 144.061 37.328C143.849 37.2289 143.568 37.1462 143.219 37.08C143.108 37.0588 142.989 37.0392 142.863 37.0214C142.697 36.9978 142.519 36.9772 142.329 36.9595C142.237 36.951 142.142 36.9432 142.045 36.936C141.984 36.9316 141.922 36.9274 141.859 36.9235C141.798 36.9197 141.737 36.9162 141.674 36.9129C141.257 36.891 140.793 36.88 140.285 36.88C140.264 36.88 140.242 36.88 140.221 36.8801C139.732 36.8808 139.284 36.8906 138.877 36.9095C138.491 36.9273 138.143 36.9533 137.831 36.9873C137.72 36.9994 137.614 37.0126 137.513 37.0268C137.413 37.0407 137.318 37.0556 137.228 37.0714Z" fill="#0F0F0F"/>
<path fill-rule="evenodd" clip-rule="evenodd" d="M80.6406 52.3986C81.7111 54.9305 83.2234 57.2691 85.2529 59.328L85.2933 59.369L85.3343 59.4094C90.0975 64.1045 96.2529 66.128 102.918 66.128C109.803 66.128 116.451 64.2804 121.175 59.1102C122.012 58.1943 122.753 57.2268 123.403 56.2152C122.37 55.086 121.853 53.7183 121.853 52.112V24.3715C120.262 22.4578 118.341 20.8413 116.123 19.5503C112.147 17.1924 107.595 16.272 102.918 16.272C98.4282 16.272 94.1177 17.2739 90.2515 19.5353C86.5279 21.6956 83.6003 24.7417 81.5501 28.5219C81.227 29.1177 80.9318 29.7231 80.6637 30.3374C81.0993 30.9594 81.4857 31.6256 81.8228 32.336C83.0602 34.8533 83.6788 37.776 83.6788 41.104C83.6788 45.7708 82.6661 49.5357 80.6406 52.3986ZM117.51 32.336C116.316 29.8187 114.502 27.856 112.07 26.448C109.638 24.9973 106.588 24.272 102.918 24.272C99.633 24.272 96.753 24.9973 94.2783 26.448C91.8463 27.856 89.9477 29.8187 88.5823 32.336C88.1921 33.0555 87.8577 33.808 87.579 34.5937C86.9902 36.2534 86.6504 38.0608 86.5593 40.016C86.5426 40.3737 86.5343 40.7364 86.5343 41.104C86.5343 41.8419 86.5616 42.5573 86.6162 43.2502C86.9626 47.6448 88.4072 51.1321 90.9503 53.712C93.937 56.656 97.9263 58.128 102.918 58.128C108.465 58.128 112.582 56.656 115.27 53.712C117.687 51.0688 119.034 47.4731 119.312 42.925C119.348 42.3341 119.366 41.7271 119.366 41.104C119.366 40.7364 119.359 40.3737 119.344 40.016C119.273 38.3321 119.034 36.7578 118.629 35.2931C118.34 34.2521 117.968 33.2664 117.51 32.336ZM111.364 41.4279C111.419 41.324 111.467 41.216 111.507 41.104C111.627 40.776 111.686 40.4133 111.686 40.016C111.686 39.3323 111.498 38.7582 111.12 38.2936C110.791 37.8884 110.319 37.5665 109.702 37.328C109.111 37.0991 108.332 36.9213 107.365 36.7948C107.298 36.7859 107.229 36.7773 107.16 36.769C106.531 36.6934 105.828 36.6383 105.049 36.6038C104.392 36.5746 103.682 36.56 102.918 36.56C102.155 36.56 101.444 36.5746 100.787 36.6038C100.009 36.6383 99.3052 36.6934 98.6769 36.769C98.6074 36.7773 98.5389 36.7859 98.4713 36.7948C97.5047 36.9213 96.7257 37.0991 96.1343 37.328C95.6039 37.5333 95.1799 37.8004 94.8622 38.1292C94.3876 38.6204 94.1503 39.2493 94.1503 40.016C94.1503 40.4133 94.21 40.776 94.3293 41.104C94.3858 41.2592 94.4556 41.4066 94.5388 41.5462C94.8651 42.0942 95.3969 42.5228 96.1343 42.832C96.7257 43.0609 97.5047 43.2387 98.4713 43.3652C99.1385 43.4526 99.895 43.5156 100.741 43.5542C101.411 43.5847 102.136 43.6 102.918 43.6C103.7 43.6 104.426 43.5847 105.096 43.5542C105.942 43.5156 106.698 43.4526 107.365 43.3652C108.332 43.2387 109.111 43.0609 109.702 42.832C110.492 42.5008 111.046 42.0328 111.364 41.4279Z" fill="#0F0F0F"/>
<path fill-rule="evenodd" clip-rule="evenodd" d="M45.8348 54.2504C46.8077 56.0764 48.0405 57.7812 49.5653 59.328L49.6057 59.369L49.6467 59.4094C54.4098 64.1045 60.5652 66.128 67.2307 66.128C74.1156 66.128 80.7637 64.2804 85.4869 59.1102C87.3563 57.0655 88.7436 54.7639 89.7256 52.2871C87.598 49.4382 86.5342 45.7105 86.5342 41.104C86.5342 37.776 87.2168 34.8533 88.5822 32.336C88.9361 31.6834 89.326 31.068 89.7516 30.49C89.5305 29.9383 89.2889 29.3933 89.0261 28.8557C87.1371 24.9006 84.2188 21.7521 80.4352 19.5503C76.4593 17.1924 71.9071 16.272 67.2307 16.272C62.7403 16.272 58.4297 17.274 54.5634 19.5356C50.84 21.6958 47.9126 24.7419 45.8624 28.5219C43.7659 32.3873 42.8467 36.6611 42.8467 41.104C42.8467 41.2228 42.8472 41.3414 42.8484 41.4599C44.4332 41.7087 45.6463 42.422 46.4877 43.6C47.5543 45.0507 48.0877 46.864 48.0877 49.04C48.0877 51.1624 47.3367 52.8993 45.8348 54.2504ZM58.5907 26.448C56.1587 27.856 54.26 29.8187 52.8947 32.336C52.5045 33.0555 52.17 33.808 51.8913 34.5937C51.3026 36.2534 50.9627 38.0608 50.8717 40.016C50.855 40.3737 50.8467 40.7364 50.8467 41.104C50.8467 41.842 50.874 42.5574 50.9286 43.2502C51.2749 47.6448 52.7196 51.1321 55.2627 53.712C58.2493 56.656 62.2387 58.128 67.2307 58.128C72.7773 58.128 76.8947 56.656 79.5827 53.712C81.9994 51.0688 83.3466 47.4731 83.6245 42.925C83.6606 42.3341 83.6787 41.7271 83.6787 41.104C83.6787 40.7364 83.6711 40.3737 83.656 40.016C83.585 38.3321 83.3466 36.7578 82.941 35.2931C82.6528 34.2521 82.28 33.2664 81.8227 32.336C80.628 29.8187 78.8147 27.856 76.3827 26.448C73.9507 24.9973 70.9 24.272 67.2307 24.272C63.9453 24.272 61.0653 24.9973 58.5907 26.448ZM75.6765 41.4279C75.7312 41.324 75.7789 41.216 75.8197 41.104C75.939 40.776 75.9987 40.4133 75.9987 40.016C75.9987 39.3323 75.81 38.7582 75.4327 38.2936C75.1035 37.8884 74.6309 37.5665 74.0147 37.328C73.4233 37.0991 72.6443 36.9213 71.6777 36.7948C71.6101 36.7859 71.5416 36.7773 71.4721 36.769C70.8438 36.6934 70.1403 36.6383 69.3617 36.6038C68.7048 36.5746 67.9945 36.56 67.2307 36.56C66.4669 36.56 65.7565 36.5746 65.0997 36.6038C64.321 36.6383 63.6176 36.6934 62.9892 36.769C62.9198 36.7773 62.8513 36.7859 62.7837 36.7948C61.817 36.9213 61.038 37.0991 60.4467 37.328C59.9163 37.5333 59.4922 37.8004 59.1745 38.1292C58.7 38.6204 58.4627 39.2493 58.4627 40.016C58.4627 40.4133 58.5224 40.776 58.6417 41.104C58.6982 41.2592 58.768 41.4066 58.8511 41.5462C59.1774 42.0942 59.7093 42.5228 60.4467 42.832C61.038 43.0609 61.817 43.2387 62.7837 43.3652C63.4508 43.4526 64.2073 43.5156 65.0533 43.5542C65.723 43.5847 66.4488 43.6 67.2307 43.6C68.0125 43.6 68.7383 43.5847 69.4081 43.5542C70.254 43.5156 71.0105 43.4526 71.6777 43.3652C72.6443 43.2387 73.4233 43.0609 74.0147 42.832C74.8044 42.5008 75.3583 42.0328 75.6765 41.4279Z" fill="#0F0F0F"/>
<path fill-rule="evenodd" clip-rule="evenodd" d="M16.0677 62.6777L16.0137 62.6493C11.2616 60.1515 7.53433 56.4449 4.89128 51.7461C2.13712 46.8498 0.983887 41.2123 0.983887 35.216C0.983887 29.1988 2.14443 23.5489 4.79358 18.5449L4.8107 18.5126L4.82811 18.4804C7.45282 13.6304 11.1443 9.73166 15.8899 7.02482C20.6376 4.29836 25.9169 3.02402 31.5119 3.02402C37.088 3.02402 42.4555 3.76953 46.8079 6.04937C49.1102 7.25532 51.2786 8.99069 52.8493 11.434C54.4449 13.9159 55.1279 16.671 55.1279 19.408C55.1279 23.0542 54.1083 26.7099 51.5915 29.7859L51.5532 29.8327L51.5142 29.879C49.8754 31.8213 47.8865 33.1397 45.7297 33.9133C47.7093 34.4568 49.6103 35.4282 51.2432 36.9473C51.0225 38.0391 50.894 39.1857 50.8576 40.387C50.8567 40.4182 50.8558 40.4494 50.855 40.4807C50.8496 40.6868 50.8469 40.8946 50.8469 41.104C50.8469 44.1281 51.3054 46.7734 52.2223 49.04C52.9483 50.8348 53.9619 52.3922 55.2629 53.712C55.2944 53.7431 55.3261 53.774 55.3578 53.8048C54.5532 56.3045 53.084 58.56 50.9531 60.4029L50.9057 60.4439L50.8576 60.4842C48.0694 62.8202 44.727 64.2269 41.2501 65.0264C38.0166 65.7794 34.6089 66.128 31.0639 66.128C25.7629 66.128 20.7283 65.0375 16.1221 62.7053L16.0677 62.6777ZM39.4479 57.232C42.0506 56.6347 44.1412 55.6747 45.7199 54.352C47.2986 52.9867 48.0879 51.216 48.0879 49.04C48.0879 46.864 47.5546 45.0507 46.4879 43.6C45.4212 42.1067 43.7572 41.36 41.4959 41.36C40.1306 41.36 38.8506 41.488 37.6559 41.744C36.5039 42 35.3092 42.256 34.0719 42.512C32.8772 42.7254 31.5546 42.832 30.1039 42.832C27.3732 42.832 25.2186 42 23.6399 40.336C22.0612 38.6294 21.2719 36.5174 21.2719 34C21.2719 31.44 22.0612 29.3707 23.6399 27.792C25.2186 26.2134 27.3732 25.424 30.1039 25.424C32.2372 25.424 34.0932 25.6587 35.6719 26.128C37.2932 26.5547 38.9572 26.768 40.6639 26.768C42.6692 26.768 44.2479 26.0854 45.3999 24.72C46.5519 23.312 47.1279 21.5414 47.1279 19.408C47.1279 16.6347 45.7839 14.544 43.0959 13.136C40.4079 11.728 36.5466 11.024 31.5119 11.024C27.1599 11.024 23.2772 12.0054 19.8639 13.968C16.4932 15.888 13.8266 18.6614 11.8639 22.288C9.94389 25.9147 8.98389 30.224 8.98389 35.216C8.98389 40.208 9.94389 44.4107 11.8639 47.824C13.7839 51.2374 16.4079 53.8187 19.7359 55.568C23.1066 57.2747 26.8826 58.128 31.0639 58.128C34.0932 58.128 36.8879 57.8293 39.4479 57.232ZM29.4061 34.7693C29.5151 34.7951 29.7357 34.832 30.1039 34.832C31.1216 34.832 31.9356 34.7601 32.5735 34.6526C33.3635 34.4887 34.1339 34.3252 34.8847 34.1621C34.4668 34.0729 34.0506 33.9737 33.6359 33.8646L33.5135 33.8324L33.3921 33.7963C32.7343 33.6008 31.68 33.424 30.1039 33.424C29.6984 33.424 29.4456 33.4637 29.31 33.4946C29.3087 33.5016 29.3074 33.509 29.3061 33.5167C29.2896 33.6134 29.2719 33.7707 29.2719 34C29.2719 34.4132 29.3345 34.6094 29.3576 34.6713C29.3677 34.6982 29.3808 34.7293 29.4061 34.7693Z" fill="#0F0F0F"/>
</svg>
