<svg width="80" height="80" viewBox="0 0 80 80" fill="none" xmlns="http://www.w3.org/2000/svg">
<circle cx="40" cy="40" r="38" fill="#F7F3EF" stroke="#0F0F0F" stroke-width="4"/>
<rect width="50" height="50" transform="translate(15 15)" fill="#F7F3EF"/>
<path fill-rule="evenodd" clip-rule="evenodd" d="M40.0002 21.2499C34.8225 21.2499 30.6252 25.4472 30.6252 30.6249C30.6252 35.8026 34.8225 39.9999 40.0002 39.9999C45.1778 39.9999 49.3752 35.8026 49.3752 30.6249C49.3752 25.4472 45.1778 21.2499 40.0002 21.2499ZM26.4585 30.6249C26.4585 23.1461 32.5213 17.0833 40.0002 17.0833C47.479 17.0833 53.5418 23.1461 53.5418 30.6249C53.5418 38.1038 47.479 44.1666 40.0002 44.1666C32.5213 44.1666 26.4585 38.1038 26.4585 30.6249Z" fill="#0F0F0F"/>
<path fill-rule="evenodd" clip-rule="evenodd" d="M40.0001 44.1667C30.9064 44.1667 23.5237 49.88 21.6942 57.2114C21.6017 57.5823 21.6943 57.9053 21.9596 58.1916C22.2499 58.505 22.7443 58.75 23.3334 58.75H56.6667C57.2558 58.75 57.7502 58.505 58.0406 58.1916C58.3058 57.9053 58.3985 57.5823 58.3059 57.2114C56.4765 49.88 49.0938 44.1667 40.0001 44.1667ZM17.6515 56.2026C19.9994 46.7936 29.2324 40 40.0001 40C50.7678 40 60.0007 46.7936 62.3486 56.2026C63.3226 60.1056 59.9314 62.9167 56.6667 62.9167H23.3334C20.0687 62.9167 16.6776 60.1056 17.6515 56.2026Z" fill="#0F0F0F"/>
</svg>
